<svg xmlns="http://www.w3.org/2000/svg" xmlns:xlink="http://www.w3.org/1999/xlink" width="600" zoomAndPan="magnify" viewBox="0 0 450 168.749997" height="225" preserveAspectRatio="xMidYMid meet" version="1.2"><defs><clipPath id="8bc283786f"><path d="M 0.332031 0 L 449.667969 0 L 449.667969 168.5 L 0.332031 168.5 Z M 0.332031 0 "/></clipPath><clipPath id="08a996c950"><path d="M 225.007812 130.171875 L 247 130.171875 L 247 151.890625 L 225.007812 151.890625 Z M 225.007812 130.171875 "/></clipPath><clipPath id="f0c429525e"><path d="M 228 133 L 249.71875 133 L 249.71875 147 L 228 147 Z M 228 133 "/></clipPath><clipPath id="4340be7a96"><path d="M 225.007812 98.414062 L 246.722656 98.414062 L 246.722656 120.132812 L 225.007812 120.132812 Z M 225.007812 98.414062 "/></clipPath></defs><g id="a6b4517a58"><g clip-rule="nonzero" clip-path="url(#8bc283786f)"><path style=" stroke:none;fill-rule:nonzero;fill:#ffffff;fill-opacity:1;" d="M 0.332031 0 L 449.667969 0 L 449.667969 168.5 L 0.332031 168.5 Z M 0.332031 0 "/><path style=" stroke:none;fill-rule:nonzero;fill:#000000;fill-opacity:1;" d="M 0.332031 0 L 449.667969 0 L 449.667969 168.5 L 0.332031 168.5 Z M 0.332031 0 "/></g><g clip-rule="nonzero" clip-path="url(#08a996c950)"><path style=" stroke:none;fill-rule:nonzero;fill:#ffffff;fill-opacity:1;" d="M 245.875 137.050781 C 245.503906 137.050781 245.207031 137.347656 245.207031 137.714844 L 245.207031 148.847656 C 245.207031 149.585938 244.609375 150.183594 243.871094 150.183594 L 227.863281 150.183594 C 227.128906 150.183594 226.53125 149.585938 226.53125 148.847656 L 226.53125 132.839844 C 226.53125 132.105469 227.128906 131.507812 227.863281 131.507812 L 243.871094 131.507812 C 244.390625 131.507812 244.867188 131.8125 245.085938 132.285156 C 245.238281 132.621094 245.632812 132.765625 245.96875 132.613281 C 246.304688 132.460938 246.449219 132.066406 246.296875 131.730469 C 245.863281 130.785156 244.914062 130.171875 243.871094 130.171875 L 227.863281 130.171875 C 226.394531 130.171875 225.195312 131.371094 225.195312 132.839844 L 225.195312 148.847656 C 225.195312 150.320312 226.394531 151.515625 227.863281 151.515625 L 243.871094 151.515625 C 245.34375 151.515625 246.539062 150.320312 246.539062 148.847656 L 246.539062 137.714844 C 246.539062 137.347656 246.242188 137.050781 245.875 137.050781 Z M 245.875 137.050781 "/></g><g clip-rule="nonzero" clip-path="url(#f0c429525e)"><path style=" stroke:none;fill-rule:nonzero;fill:#ffffff;fill-opacity:1;" d="M 248.925781 133.15625 C 248.925781 133.15625 248.921875 133.15625 248.921875 133.15625 C 243.226562 133.660156 238.019531 136.792969 234.902344 141.570312 L 231.441406 137.574219 C 230.835938 136.878906 229.6875 136.792969 228.988281 137.398438 C 228.265625 138.023438 228.1875 139.125 228.8125 139.847656 L 234.835938 146.804688 C 234.902344 146.878906 234.992188 146.921875 235.089844 146.921875 C 235.101562 146.921875 235.113281 146.921875 235.128906 146.917969 C 235.238281 146.90625 235.332031 146.839844 235.382812 146.742188 C 238.371094 141.082031 243.261719 136.597656 249.160156 134.109375 C 249.410156 134.003906 249.53125 133.710938 249.421875 133.457031 C 249.347656 133.273438 249.167969 133.15625 248.925781 133.15625 Z M 248.925781 133.15625 "/></g><g clip-rule="nonzero" clip-path="url(#4340be7a96)"><path style=" stroke:none;fill-rule:nonzero;fill:#ffffff;fill-opacity:1;" d="M 242.652344 100.085938 C 243.976562 100.085938 245.054688 101.164062 245.054688 102.488281 L 245.054688 116.0625 C 245.054688 117.382812 243.976562 118.460938 242.652344 118.460938 L 229.078125 118.460938 C 227.753906 118.460938 226.675781 117.382812 226.675781 116.0625 L 226.675781 102.488281 C 226.675781 101.164062 227.753906 100.085938 229.078125 100.085938 L 242.652344 100.085938 M 242.652344 98.414062 L 229.078125 98.414062 C 226.828125 98.414062 225.007812 100.238281 225.007812 102.488281 L 225.007812 116.0625 C 225.007812 118.308594 226.828125 120.132812 229.078125 120.132812 L 242.652344 120.132812 C 244.902344 120.132812 246.722656 118.308594 246.722656 116.0625 L 246.722656 102.488281 C 246.722656 100.238281 244.902344 98.414062 242.652344 98.414062 Z M 242.652344 98.414062 "/></g><g style="fill:#ffffff;fill-opacity:1;"><g transform="translate(257.3013, 115.998418)"><path style="stroke:none" d="M 9.375 -12.828125 C 10.9375 -12.828125 12.195312 -12.351562 13.15625 -11.40625 C 14.125 -10.46875 14.609375 -9.078125 14.609375 -7.234375 L 14.609375 0 L 10.9375 0 L 10.9375 -6.671875 C 10.9375 -7.671875 10.71875 -8.414062 10.28125 -8.90625 C 9.84375 -9.40625 9.210938 -9.65625 8.390625 -9.65625 C 7.460938 -9.65625 6.722656 -9.367188 6.171875 -8.796875 C 5.628906 -8.222656 5.359375 -7.375 5.359375 -6.25 L 5.359375 0 L 1.6875 0 L 1.6875 -17.421875 L 5.359375 -17.421875 L 5.359375 -11.3125 C 5.835938 -11.800781 6.421875 -12.175781 7.109375 -12.4375 C 7.804688 -12.695312 8.5625 -12.828125 9.375 -12.828125 Z M 9.375 -12.828125 "/></g></g><g style="fill:#ffffff;fill-opacity:1;"><g transform="translate(273.527199, 115.998418)"><path style="stroke:none" d="M 7.703125 0.1875 C 6.367188 0.1875 5.171875 -0.0859375 4.109375 -0.640625 C 3.054688 -1.203125 2.234375 -1.972656 1.640625 -2.953125 C 1.046875 -3.941406 0.75 -5.0625 0.75 -6.3125 C 0.75 -7.570312 1.046875 -8.691406 1.640625 -9.671875 C 2.234375 -10.660156 3.054688 -11.429688 4.109375 -11.984375 C 5.171875 -12.546875 6.367188 -12.828125 7.703125 -12.828125 C 9.035156 -12.828125 10.222656 -12.546875 11.265625 -11.984375 C 12.316406 -11.429688 13.140625 -10.660156 13.734375 -9.671875 C 14.328125 -8.691406 14.625 -7.570312 14.625 -6.3125 C 14.625 -5.0625 14.328125 -3.941406 13.734375 -2.953125 C 13.140625 -1.972656 12.316406 -1.203125 11.265625 -0.640625 C 10.222656 -0.0859375 9.035156 0.1875 7.703125 0.1875 Z M 7.703125 -2.8125 C 8.640625 -2.8125 9.410156 -3.128906 10.015625 -3.765625 C 10.617188 -4.398438 10.921875 -5.25 10.921875 -6.3125 C 10.921875 -7.382812 10.617188 -8.234375 10.015625 -8.859375 C 9.410156 -9.492188 8.640625 -9.8125 7.703125 -9.8125 C 6.765625 -9.8125 5.988281 -9.492188 5.375 -8.859375 C 4.769531 -8.234375 4.46875 -7.382812 4.46875 -6.3125 C 4.46875 -5.25 4.769531 -4.398438 5.375 -3.765625 C 5.988281 -3.128906 6.765625 -2.8125 7.703125 -2.8125 Z M 7.703125 -2.8125 "/></g></g><g style="fill:#ffffff;fill-opacity:1;"><g transform="translate(288.907755, 115.998418)"><path style="stroke:none" d="M 9.375 -12.828125 C 10.9375 -12.828125 12.195312 -12.351562 13.15625 -11.40625 C 14.125 -10.46875 14.609375 -9.078125 14.609375 -7.234375 L 14.609375 0 L 10.9375 0 L 10.9375 -6.671875 C 10.9375 -7.671875 10.71875 -8.414062 10.28125 -8.90625 C 9.84375 -9.40625 9.210938 -9.65625 8.390625 -9.65625 C 7.460938 -9.65625 6.722656 -9.367188 6.171875 -8.796875 C 5.628906 -8.222656 5.359375 -7.375 5.359375 -6.25 L 5.359375 0 L 1.6875 0 L 1.6875 -12.640625 L 5.1875 -12.640625 L 5.1875 -11.15625 C 5.675781 -11.6875 6.28125 -12.097656 7 -12.390625 C 7.71875 -12.679688 8.507812 -12.828125 9.375 -12.828125 Z M 9.375 -12.828125 "/></g></g><g style="fill:#ffffff;fill-opacity:1;"><g transform="translate(305.133654, 115.998418)"><path style="stroke:none" d="M 14.0625 -6.265625 C 14.0625 -6.222656 14.039062 -5.894531 14 -5.28125 L 4.4375 -5.28125 C 4.613281 -4.5 5.019531 -3.878906 5.65625 -3.421875 C 6.300781 -2.972656 7.101562 -2.75 8.0625 -2.75 C 8.71875 -2.75 9.296875 -2.84375 9.796875 -3.03125 C 10.304688 -3.226562 10.78125 -3.539062 11.21875 -3.96875 L 13.171875 -1.859375 C 11.984375 -0.492188 10.25 0.1875 7.96875 0.1875 C 6.539062 0.1875 5.273438 -0.0859375 4.171875 -0.640625 C 3.078125 -1.203125 2.234375 -1.972656 1.640625 -2.953125 C 1.046875 -3.941406 0.75 -5.0625 0.75 -6.3125 C 0.75 -7.550781 1.039062 -8.664062 1.625 -9.65625 C 2.21875 -10.65625 3.023438 -11.429688 4.046875 -11.984375 C 5.078125 -12.546875 6.222656 -12.828125 7.484375 -12.828125 C 8.722656 -12.828125 9.84375 -12.554688 10.84375 -12.015625 C 11.851562 -11.484375 12.640625 -10.722656 13.203125 -9.734375 C 13.773438 -8.742188 14.0625 -7.585938 14.0625 -6.265625 Z M 7.515625 -10.046875 C 6.679688 -10.046875 5.984375 -9.8125 5.421875 -9.34375 C 4.859375 -8.875 4.515625 -8.234375 4.390625 -7.421875 L 10.609375 -7.421875 C 10.484375 -8.222656 10.140625 -8.859375 9.578125 -9.328125 C 9.015625 -9.804688 8.328125 -10.046875 7.515625 -10.046875 Z M 7.515625 -10.046875 "/></g></g><g style="fill:#ffffff;fill-opacity:1;"><g transform="translate(319.950646, 115.998418)"><path style="stroke:none" d="M 14.234375 -12.640625 L 8.53125 0.78125 C 7.945312 2.226562 7.226562 3.25 6.375 3.84375 C 5.519531 4.445312 4.488281 4.75 3.28125 4.75 C 2.625 4.75 1.972656 4.644531 1.328125 4.4375 C 0.691406 4.238281 0.171875 3.957031 -0.234375 3.59375 L 1.109375 0.984375 C 1.390625 1.234375 1.710938 1.425781 2.078125 1.5625 C 2.441406 1.707031 2.804688 1.78125 3.171875 1.78125 C 3.671875 1.78125 4.078125 1.660156 4.390625 1.421875 C 4.703125 1.179688 4.984375 0.78125 5.234375 0.21875 L 5.28125 0.09375 L -0.1875 -12.640625 L 3.59375 -12.640625 L 7.140625 -4.0625 L 10.703125 -12.640625 Z M 14.234375 -12.640625 "/></g></g><g style="fill:#ffffff;fill-opacity:1;"><g transform="translate(333.992738, 115.998418)"><path style="stroke:none" d="M 1.953125 -16.4375 L 9.421875 -16.4375 C 11.203125 -16.4375 12.773438 -16.09375 14.140625 -15.40625 C 15.515625 -14.726562 16.582031 -13.769531 17.34375 -12.53125 C 18.101562 -11.300781 18.484375 -9.863281 18.484375 -8.21875 C 18.484375 -6.570312 18.101562 -5.128906 17.34375 -3.890625 C 16.582031 -2.660156 15.515625 -1.703125 14.140625 -1.015625 C 12.773438 -0.335938 11.203125 0 9.421875 0 L 1.953125 0 Z M 9.234375 -3.125 C 10.867188 -3.125 12.175781 -3.582031 13.15625 -4.5 C 14.132812 -5.414062 14.625 -6.65625 14.625 -8.21875 C 14.625 -9.78125 14.132812 -11.019531 13.15625 -11.9375 C 12.175781 -12.851562 10.867188 -13.3125 9.234375 -13.3125 L 5.75 -13.3125 L 5.75 -3.125 Z M 9.234375 -3.125 "/></g></g><g style="fill:#ffffff;fill-opacity:1;"><g transform="translate(353.388672, 115.998418)"><path style="stroke:none" d="M 9.90625 0.28125 C 8.195312 0.28125 6.65625 -0.0820312 5.28125 -0.8125 C 3.914062 -1.550781 2.847656 -2.566406 2.078125 -3.859375 C 1.304688 -5.148438 0.921875 -6.601562 0.921875 -8.21875 C 0.921875 -9.832031 1.304688 -11.285156 2.078125 -12.578125 C 2.847656 -13.867188 3.914062 -14.878906 5.28125 -15.609375 C 6.65625 -16.347656 8.195312 -16.71875 9.90625 -16.71875 C 11.613281 -16.71875 13.148438 -16.347656 14.515625 -15.609375 C 15.878906 -14.878906 16.953125 -13.867188 17.734375 -12.578125 C 18.515625 -11.285156 18.90625 -9.832031 18.90625 -8.21875 C 18.90625 -6.601562 18.515625 -5.148438 17.734375 -3.859375 C 16.953125 -2.566406 15.878906 -1.550781 14.515625 -0.8125 C 13.148438 -0.0820312 11.613281 0.28125 9.90625 0.28125 Z M 9.90625 -2.953125 C 10.875 -2.953125 11.75 -3.175781 12.53125 -3.625 C 13.320312 -4.070312 13.9375 -4.691406 14.375 -5.484375 C 14.820312 -6.285156 15.046875 -7.195312 15.046875 -8.21875 C 15.046875 -9.238281 14.820312 -10.144531 14.375 -10.9375 C 13.9375 -11.738281 13.320312 -12.363281 12.53125 -12.8125 C 11.75 -13.257812 10.875 -13.484375 9.90625 -13.484375 C 8.9375 -13.484375 8.0625 -13.257812 7.28125 -12.8125 C 6.5 -12.363281 5.882812 -11.738281 5.4375 -10.9375 C 4.988281 -10.144531 4.765625 -9.238281 4.765625 -8.21875 C 4.765625 -7.195312 4.988281 -6.285156 5.4375 -5.484375 C 5.882812 -4.691406 6.5 -4.070312 7.28125 -3.625 C 8.0625 -3.175781 8.9375 -2.953125 9.90625 -2.953125 Z M 9.90625 -2.953125 "/></g></g><g style="fill:#ffffff;fill-opacity:1;"><g transform="translate(379.852616, 115.998418)"><path style="stroke:none" d="M 13.203125 -3.09375 L 13.203125 0 L 0.78125 0 L 0.78125 -2.46875 L 7.109375 -8.453125 C 7.785156 -9.097656 8.238281 -9.648438 8.46875 -10.109375 C 8.707031 -10.566406 8.828125 -11.023438 8.828125 -11.484375 C 8.828125 -12.140625 8.601562 -12.644531 8.15625 -13 C 7.707031 -13.351562 7.054688 -13.53125 6.203125 -13.53125 C 5.484375 -13.53125 4.832031 -13.390625 4.25 -13.109375 C 3.664062 -12.835938 3.179688 -12.429688 2.796875 -11.890625 L 0.03125 -13.671875 C 0.664062 -14.617188 1.546875 -15.363281 2.671875 -15.90625 C 3.804688 -16.445312 5.097656 -16.71875 6.546875 -16.71875 C 7.773438 -16.71875 8.84375 -16.515625 9.75 -16.109375 C 10.664062 -15.710938 11.378906 -15.148438 11.890625 -14.421875 C 12.398438 -13.703125 12.65625 -12.847656 12.65625 -11.859375 C 12.65625 -10.960938 12.46875 -10.125 12.09375 -9.34375 C 11.71875 -8.5625 10.988281 -7.671875 9.90625 -6.671875 L 6.125 -3.09375 Z M 13.203125 -3.09375 "/></g></g><g style="fill:#ffffff;fill-opacity:1;"><g transform="translate(250.188187, 148.78648)"><path style="stroke:none" d="M 9.375 -12.828125 C 10.9375 -12.828125 12.195312 -12.351562 13.15625 -11.40625 C 14.125 -10.46875 14.609375 -9.078125 14.609375 -7.234375 L 14.609375 0 L 10.9375 0 L 10.9375 -6.671875 C 10.9375 -7.671875 10.71875 -8.414062 10.28125 -8.90625 C 9.84375 -9.40625 9.210938 -9.65625 8.390625 -9.65625 C 7.460938 -9.65625 6.722656 -9.367188 6.171875 -8.796875 C 5.628906 -8.222656 5.359375 -7.375 5.359375 -6.25 L 5.359375 0 L 1.6875 0 L 1.6875 -17.421875 L 5.359375 -17.421875 L 5.359375 -11.3125 C 5.835938 -11.800781 6.421875 -12.175781 7.109375 -12.4375 C 7.804688 -12.695312 8.5625 -12.828125 9.375 -12.828125 Z M 9.375 -12.828125 "/></g></g><g style="fill:#ffffff;fill-opacity:1;"><g transform="translate(266.414086, 148.78648)"><path style="stroke:none" d="M 7.703125 0.1875 C 6.367188 0.1875 5.171875 -0.0859375 4.109375 -0.640625 C 3.054688 -1.203125 2.234375 -1.972656 1.640625 -2.953125 C 1.046875 -3.941406 0.75 -5.0625 0.75 -6.3125 C 0.75 -7.570312 1.046875 -8.691406 1.640625 -9.671875 C 2.234375 -10.660156 3.054688 -11.429688 4.109375 -11.984375 C 5.171875 -12.546875 6.367188 -12.828125 7.703125 -12.828125 C 9.035156 -12.828125 10.222656 -12.546875 11.265625 -11.984375 C 12.316406 -11.429688 13.140625 -10.660156 13.734375 -9.671875 C 14.328125 -8.691406 14.625 -7.570312 14.625 -6.3125 C 14.625 -5.0625 14.328125 -3.941406 13.734375 -2.953125 C 13.140625 -1.972656 12.316406 -1.203125 11.265625 -0.640625 C 10.222656 -0.0859375 9.035156 0.1875 7.703125 0.1875 Z M 7.703125 -2.8125 C 8.640625 -2.8125 9.410156 -3.128906 10.015625 -3.765625 C 10.617188 -4.398438 10.921875 -5.25 10.921875 -6.3125 C 10.921875 -7.382812 10.617188 -8.234375 10.015625 -8.859375 C 9.410156 -9.492188 8.640625 -9.8125 7.703125 -9.8125 C 6.765625 -9.8125 5.988281 -9.492188 5.375 -8.859375 C 4.769531 -8.234375 4.46875 -7.382812 4.46875 -6.3125 C 4.46875 -5.25 4.769531 -4.398438 5.375 -3.765625 C 5.988281 -3.128906 6.765625 -2.8125 7.703125 -2.8125 Z M 7.703125 -2.8125 "/></g></g><g style="fill:#ffffff;fill-opacity:1;"><g transform="translate(281.794642, 148.78648)"><path style="stroke:none" d="M 9.375 -12.828125 C 10.9375 -12.828125 12.195312 -12.351562 13.15625 -11.40625 C 14.125 -10.46875 14.609375 -9.078125 14.609375 -7.234375 L 14.609375 0 L 10.9375 0 L 10.9375 -6.671875 C 10.9375 -7.671875 10.71875 -8.414062 10.28125 -8.90625 C 9.84375 -9.40625 9.210938 -9.65625 8.390625 -9.65625 C 7.460938 -9.65625 6.722656 -9.367188 6.171875 -8.796875 C 5.628906 -8.222656 5.359375 -7.375 5.359375 -6.25 L 5.359375 0 L 1.6875 0 L 1.6875 -12.640625 L 5.1875 -12.640625 L 5.1875 -11.15625 C 5.675781 -11.6875 6.28125 -12.097656 7 -12.390625 C 7.71875 -12.679688 8.507812 -12.828125 9.375 -12.828125 Z M 9.375 -12.828125 "/></g></g><g style="fill:#ffffff;fill-opacity:1;"><g transform="translate(298.020541, 148.78648)"><path style="stroke:none" d="M 14.0625 -6.265625 C 14.0625 -6.222656 14.039062 -5.894531 14 -5.28125 L 4.4375 -5.28125 C 4.613281 -4.5 5.019531 -3.878906 5.65625 -3.421875 C 6.300781 -2.972656 7.101562 -2.75 8.0625 -2.75 C 8.71875 -2.75 9.296875 -2.84375 9.796875 -3.03125 C 10.304688 -3.226562 10.78125 -3.539062 11.21875 -3.96875 L 13.171875 -1.859375 C 11.984375 -0.492188 10.25 0.1875 7.96875 0.1875 C 6.539062 0.1875 5.273438 -0.0859375 4.171875 -0.640625 C 3.078125 -1.203125 2.234375 -1.972656 1.640625 -2.953125 C 1.046875 -3.941406 0.75 -5.0625 0.75 -6.3125 C 0.75 -7.550781 1.039062 -8.664062 1.625 -9.65625 C 2.21875 -10.65625 3.023438 -11.429688 4.046875 -11.984375 C 5.078125 -12.546875 6.222656 -12.828125 7.484375 -12.828125 C 8.722656 -12.828125 9.84375 -12.554688 10.84375 -12.015625 C 11.851562 -11.484375 12.640625 -10.722656 13.203125 -9.734375 C 13.773438 -8.742188 14.0625 -7.585938 14.0625 -6.265625 Z M 7.515625 -10.046875 C 6.679688 -10.046875 5.984375 -9.8125 5.421875 -9.34375 C 4.859375 -8.875 4.515625 -8.234375 4.390625 -7.421875 L 10.609375 -7.421875 C 10.484375 -8.222656 10.140625 -8.859375 9.578125 -9.328125 C 9.015625 -9.804688 8.328125 -10.046875 7.515625 -10.046875 Z M 7.515625 -10.046875 "/></g></g><g style="fill:#ffffff;fill-opacity:1;"><g transform="translate(312.837533, 148.78648)"><path style="stroke:none" d="M 14.234375 -12.640625 L 8.53125 0.78125 C 7.945312 2.226562 7.226562 3.25 6.375 3.84375 C 5.519531 4.445312 4.488281 4.75 3.28125 4.75 C 2.625 4.75 1.972656 4.644531 1.328125 4.4375 C 0.691406 4.238281 0.171875 3.957031 -0.234375 3.59375 L 1.109375 0.984375 C 1.390625 1.234375 1.710938 1.425781 2.078125 1.5625 C 2.441406 1.707031 2.804688 1.78125 3.171875 1.78125 C 3.671875 1.78125 4.078125 1.660156 4.390625 1.421875 C 4.703125 1.179688 4.984375 0.78125 5.234375 0.21875 L 5.28125 0.09375 L -0.1875 -12.640625 L 3.59375 -12.640625 L 7.140625 -4.0625 L 10.703125 -12.640625 Z M 14.234375 -12.640625 "/></g></g><g style="fill:#ffffff;fill-opacity:1;"><g transform="translate(326.879625, 148.78648)"><path style="stroke:none" d="M 1.953125 -16.4375 L 9.421875 -16.4375 C 11.203125 -16.4375 12.773438 -16.09375 14.140625 -15.40625 C 15.515625 -14.726562 16.582031 -13.769531 17.34375 -12.53125 C 18.101562 -11.300781 18.484375 -9.863281 18.484375 -8.21875 C 18.484375 -6.570312 18.101562 -5.128906 17.34375 -3.890625 C 16.582031 -2.660156 15.515625 -1.703125 14.140625 -1.015625 C 12.773438 -0.335938 11.203125 0 9.421875 0 L 1.953125 0 Z M 9.234375 -3.125 C 10.867188 -3.125 12.175781 -3.582031 13.15625 -4.5 C 14.132812 -5.414062 14.625 -6.65625 14.625 -8.21875 C 14.625 -9.78125 14.132812 -11.019531 13.15625 -11.9375 C 12.175781 -12.851562 10.867188 -13.3125 9.234375 -13.3125 L 5.75 -13.3125 L 5.75 -3.125 Z M 9.234375 -3.125 "/></g></g><g style="fill:#ffffff;fill-opacity:1;"><g transform="translate(346.275559, 148.78648)"><path style="stroke:none" d="M 9.90625 0.28125 C 8.195312 0.28125 6.65625 -0.0820312 5.28125 -0.8125 C 3.914062 -1.550781 2.847656 -2.566406 2.078125 -3.859375 C 1.304688 -5.148438 0.921875 -6.601562 0.921875 -8.21875 C 0.921875 -9.832031 1.304688 -11.285156 2.078125 -12.578125 C 2.847656 -13.867188 3.914062 -14.878906 5.28125 -15.609375 C 6.65625 -16.347656 8.195312 -16.71875 9.90625 -16.71875 C 11.613281 -16.71875 13.148438 -16.347656 14.515625 -15.609375 C 15.878906 -14.878906 16.953125 -13.867188 17.734375 -12.578125 C 18.515625 -11.285156 18.90625 -9.832031 18.90625 -8.21875 C 18.90625 -6.601562 18.515625 -5.148438 17.734375 -3.859375 C 16.953125 -2.566406 15.878906 -1.550781 14.515625 -0.8125 C 13.148438 -0.0820312 11.613281 0.28125 9.90625 0.28125 Z M 9.90625 -2.953125 C 10.875 -2.953125 11.75 -3.175781 12.53125 -3.625 C 13.320312 -4.070312 13.9375 -4.691406 14.375 -5.484375 C 14.820312 -6.285156 15.046875 -7.195312 15.046875 -8.21875 C 15.046875 -9.238281 14.820312 -10.144531 14.375 -10.9375 C 13.9375 -11.738281 13.320312 -12.363281 12.53125 -12.8125 C 11.75 -13.257812 10.875 -13.484375 9.90625 -13.484375 C 8.9375 -13.484375 8.0625 -13.257812 7.28125 -12.8125 C 6.5 -12.363281 5.882812 -11.738281 5.4375 -10.9375 C 4.988281 -10.144531 4.765625 -9.238281 4.765625 -8.21875 C 4.765625 -7.195312 4.988281 -6.285156 5.4375 -5.484375 C 5.882812 -4.691406 6.5 -4.070312 7.28125 -3.625 C 8.0625 -3.175781 8.9375 -2.953125 9.90625 -2.953125 Z M 9.90625 -2.953125 "/></g></g><g style="fill:#ffffff;fill-opacity:1;"><g transform="translate(366.094165, 148.78648)"><path style="stroke:none" d="M 17.03125 -16.4375 L 17.03125 0 L 13.90625 0 L 5.703125 -9.984375 L 5.703125 0 L 1.953125 0 L 1.953125 -16.4375 L 5.09375 -16.4375 L 13.265625 -6.453125 L 13.265625 -16.4375 Z M 17.03125 -16.4375 "/></g></g><g style="fill:#ffffff;fill-opacity:1;"><g transform="translate(385.067427, 148.78648)"><path style="stroke:none" d="M 14.671875 -3.046875 L 14.671875 0 L 1.953125 0 L 1.953125 -16.4375 L 14.375 -16.4375 L 14.375 -13.390625 L 5.734375 -13.390625 L 5.734375 -9.8125 L 13.359375 -9.8125 L 13.359375 -6.859375 L 5.734375 -6.859375 L 5.734375 -3.046875 Z M 14.671875 -3.046875 "/></g></g><g style="fill:#ffffff;fill-opacity:1;"><g transform="translate(203.041644, 76.876705)"><path style="stroke:none" d="M 2.125 -10.703125 C 1.90625 -11.191406 1.789062 -11.675781 1.78125 -12.15625 C 1.769531 -12.632812 1.84375 -13.101562 2 -13.5625 C 2.164062 -14.03125 2.410156 -14.472656 2.734375 -14.890625 C 3.054688 -15.316406 3.441406 -15.710938 3.890625 -16.078125 L 4.390625 -15.75 C 4.460938 -15.695312 4.5 -15.625 4.5 -15.53125 C 4.5 -15.46875 4.484375 -15.410156 4.453125 -15.359375 C 4.429688 -15.316406 4.378906 -15.253906 4.296875 -15.171875 C 4.140625 -14.984375 3.984375 -14.765625 3.828125 -14.515625 C 3.671875 -14.265625 3.546875 -13.988281 3.453125 -13.6875 C 3.359375 -13.394531 3.3125 -13.078125 3.3125 -12.734375 C 3.320312 -12.390625 3.410156 -12.039062 3.578125 -11.6875 C 3.617188 -11.570312 3.613281 -11.46875 3.5625 -11.375 C 3.507812 -11.28125 3.414062 -11.207031 3.28125 -11.15625 Z M 5.0625 -10.703125 C 4.84375 -11.191406 4.726562 -11.675781 4.71875 -12.15625 C 4.707031 -12.632812 4.78125 -13.101562 4.9375 -13.5625 C 5.101562 -14.03125 5.347656 -14.472656 5.671875 -14.890625 C 5.992188 -15.316406 6.378906 -15.710938 6.828125 -16.078125 L 7.328125 -15.75 C 7.398438 -15.695312 7.4375 -15.625 7.4375 -15.53125 C 7.4375 -15.46875 7.421875 -15.410156 7.390625 -15.359375 C 7.367188 -15.316406 7.316406 -15.253906 7.234375 -15.171875 C 7.078125 -14.984375 6.921875 -14.765625 6.765625 -14.515625 C 6.609375 -14.265625 6.484375 -13.988281 6.390625 -13.6875 C 6.296875 -13.394531 6.25 -13.078125 6.25 -12.734375 C 6.257812 -12.390625 6.347656 -12.039062 6.515625 -11.6875 C 6.554688 -11.570312 6.550781 -11.46875 6.5 -11.375 C 6.445312 -11.28125 6.351562 -11.207031 6.21875 -11.15625 Z M 5.0625 -10.703125 "/></g></g><g style="fill:#ffffff;fill-opacity:1;"><g transform="translate(210.291161, 76.876705)"><path style="stroke:none" d="M 15.421875 -10.671875 L 10.9375 0 L 9.515625 0 C 9.347656 0 9.242188 -0.117188 9.203125 -0.359375 L 7.90625 -7.59375 C 7.894531 -7.71875 7.882812 -7.832031 7.875 -7.9375 C 7.863281 -8.050781 7.847656 -8.164062 7.828125 -8.28125 C 7.753906 -8.050781 7.671875 -7.820312 7.578125 -7.59375 L 4.5 -0.359375 C 4.40625 -0.117188 4.257812 0 4.0625 0 L 2.703125 0 L 0.828125 -10.671875 L 2.21875 -10.671875 C 2.363281 -10.671875 2.476562 -10.632812 2.5625 -10.5625 C 2.644531 -10.5 2.703125 -10.40625 2.734375 -10.28125 L 3.703125 -3.421875 C 3.722656 -3.171875 3.738281 -2.925781 3.75 -2.6875 C 3.757812 -2.457031 3.769531 -2.234375 3.78125 -2.015625 C 3.863281 -2.234375 3.945312 -2.457031 4.03125 -2.6875 C 4.125 -2.925781 4.222656 -3.171875 4.328125 -3.421875 L 7.234375 -10.328125 C 7.273438 -10.429688 7.34375 -10.519531 7.4375 -10.59375 C 7.539062 -10.664062 7.648438 -10.703125 7.765625 -10.703125 L 8.546875 -10.703125 C 8.679688 -10.703125 8.785156 -10.664062 8.859375 -10.59375 C 8.941406 -10.519531 8.988281 -10.429688 9 -10.328125 L 10.203125 -3.421875 C 10.234375 -3.171875 10.265625 -2.929688 10.296875 -2.703125 C 10.328125 -2.472656 10.351562 -2.242188 10.375 -2.015625 C 10.4375 -2.234375 10.503906 -2.457031 10.578125 -2.6875 C 10.648438 -2.925781 10.726562 -3.171875 10.8125 -3.421875 L 13.515625 -10.28125 C 13.554688 -10.394531 13.625 -10.488281 13.71875 -10.5625 C 13.820312 -10.632812 13.9375 -10.671875 14.0625 -10.671875 Z M 15.421875 -10.671875 "/></g></g><g style="fill:#ffffff;fill-opacity:1;"><g transform="translate(225.527797, 76.876705)"><path style="stroke:none" d="M 3.5 -8.3125 C 4.050781 -9.144531 4.664062 -9.769531 5.34375 -10.1875 C 6.019531 -10.613281 6.710938 -10.828125 7.421875 -10.828125 C 7.878906 -10.828125 8.28125 -10.738281 8.625 -10.5625 C 8.96875 -10.382812 9.242188 -10.125 9.453125 -9.78125 C 9.671875 -9.4375 9.816406 -9.007812 9.890625 -8.5 C 9.972656 -8 9.972656 -7.429688 9.890625 -6.796875 L 9.09375 0 L 7.21875 0 L 8.015625 -6.796875 C 8.117188 -7.640625 8.066406 -8.265625 7.859375 -8.671875 C 7.660156 -9.078125 7.285156 -9.28125 6.734375 -9.28125 C 6.421875 -9.28125 6.09375 -9.191406 5.75 -9.015625 C 5.414062 -8.847656 5.09375 -8.601562 4.78125 -8.28125 C 4.46875 -7.96875 4.171875 -7.585938 3.890625 -7.140625 C 3.617188 -6.691406 3.378906 -6.191406 3.171875 -5.640625 L 2.484375 0 L 0.625 0 L 2.5 -15.53125 L 4.375 -15.53125 Z M 3.5 -8.3125 "/></g></g><g style="fill:#ffffff;fill-opacity:1;"><g transform="translate(236.68658, 76.876705)"><path style="stroke:none" d="M 7.9375 -9.375 C 7.78125 -9.40625 7.625 -9.425781 7.46875 -9.4375 C 7.320312 -9.445312 7.175781 -9.453125 7.03125 -9.453125 C 6.601562 -9.453125 6.191406 -9.382812 5.796875 -9.25 C 5.410156 -9.113281 5.046875 -8.921875 4.703125 -8.671875 C 4.359375 -8.429688 4.046875 -8.140625 3.765625 -7.796875 C 3.484375 -7.453125 3.238281 -7.078125 3.03125 -6.671875 C 2.832031 -6.265625 2.675781 -5.828125 2.5625 -5.359375 C 2.457031 -4.898438 2.40625 -4.429688 2.40625 -3.953125 C 2.40625 -2.253906 2.945312 -1.40625 4.03125 -1.40625 C 4.375 -1.40625 4.707031 -1.515625 5.03125 -1.734375 C 5.363281 -1.953125 5.675781 -2.25 5.96875 -2.625 C 6.269531 -3.007812 6.546875 -3.460938 6.796875 -3.984375 C 7.054688 -4.515625 7.285156 -5.09375 7.484375 -5.71875 Z M 7.21875 -2.8125 C 6.96875 -2.363281 6.695312 -1.957031 6.40625 -1.59375 C 6.113281 -1.226562 5.800781 -0.914062 5.46875 -0.65625 C 5.144531 -0.40625 4.800781 -0.207031 4.4375 -0.0625 C 4.082031 0.0703125 3.707031 0.140625 3.3125 0.140625 C 2.894531 0.140625 2.515625 0.0625 2.171875 -0.09375 C 1.828125 -0.257812 1.53125 -0.503906 1.28125 -0.828125 C 1.039062 -1.148438 0.851562 -1.539062 0.71875 -2 C 0.59375 -2.46875 0.53125 -3.003906 0.53125 -3.609375 C 0.53125 -4.242188 0.609375 -4.859375 0.765625 -5.453125 C 0.921875 -6.054688 1.144531 -6.625 1.4375 -7.15625 C 1.726562 -7.695312 2.078125 -8.191406 2.484375 -8.640625 C 2.890625 -9.085938 3.34375 -9.472656 3.84375 -9.796875 C 4.351562 -10.117188 4.894531 -10.367188 5.46875 -10.546875 C 6.039062 -10.734375 6.644531 -10.828125 7.28125 -10.828125 C 7.738281 -10.828125 8.179688 -10.789062 8.609375 -10.71875 C 9.046875 -10.644531 9.472656 -10.515625 9.890625 -10.328125 L 8.625 0 L 7.65625 0 C 7.40625 0 7.234375 -0.0625 7.140625 -0.1875 C 7.054688 -0.3125 7.015625 -0.46875 7.015625 -0.65625 Z M 7.21875 -2.8125 "/></g></g><g style="fill:#ffffff;fill-opacity:1;"><g transform="translate(247.455492, 76.876705)"><path style="stroke:none" d="M 1.46875 -2.015625 C 1.46875 -2.054688 1.46875 -2.109375 1.46875 -2.171875 C 1.46875 -2.242188 1.472656 -2.34375 1.484375 -2.46875 C 1.492188 -2.59375 1.507812 -2.753906 1.53125 -2.953125 C 1.5625 -3.160156 1.597656 -3.429688 1.640625 -3.765625 L 2.28125 -9.109375 L 1.09375 -9.109375 C 1 -9.109375 0.921875 -9.140625 0.859375 -9.203125 C 0.796875 -9.273438 0.773438 -9.378906 0.796875 -9.515625 L 0.875 -10.265625 L 2.515625 -10.484375 L 3.3125 -13.78125 C 3.351562 -13.882812 3.410156 -13.96875 3.484375 -14.03125 C 3.554688 -14.101562 3.648438 -14.140625 3.765625 -14.140625 L 4.75 -14.140625 L 4.296875 -10.46875 L 7.09375 -10.46875 L 6.9375 -9.109375 L 4.125 -9.109375 L 3.484375 -3.859375 C 3.441406 -3.566406 3.410156 -3.332031 3.390625 -3.15625 C 3.367188 -2.976562 3.351562 -2.835938 3.34375 -2.734375 C 3.332031 -2.628906 3.320312 -2.554688 3.3125 -2.515625 C 3.3125 -2.472656 3.3125 -2.441406 3.3125 -2.421875 C 3.3125 -2.066406 3.394531 -1.800781 3.5625 -1.625 C 3.738281 -1.457031 3.96875 -1.375 4.25 -1.375 C 4.4375 -1.375 4.597656 -1.398438 4.734375 -1.453125 C 4.867188 -1.503906 4.988281 -1.5625 5.09375 -1.625 C 5.207031 -1.6875 5.296875 -1.742188 5.359375 -1.796875 C 5.429688 -1.847656 5.492188 -1.875 5.546875 -1.875 C 5.609375 -1.875 5.65625 -1.859375 5.6875 -1.828125 C 5.71875 -1.804688 5.75 -1.765625 5.78125 -1.703125 L 6.171875 -0.796875 C 5.828125 -0.492188 5.4375 -0.253906 5 -0.078125 C 4.5625 0.0859375 4.117188 0.171875 3.671875 0.171875 C 2.992188 0.171875 2.457031 -0.015625 2.0625 -0.390625 C 1.675781 -0.765625 1.476562 -1.304688 1.46875 -2.015625 Z M 1.46875 -2.015625 "/></g></g><g style="fill:#ffffff;fill-opacity:1;"><g transform="translate(254.926296, 76.876705)"><path style="stroke:none" d="M 3.96875 -15.84375 C 4.175781 -15.363281 4.285156 -14.878906 4.296875 -14.390625 C 4.316406 -13.910156 4.242188 -13.441406 4.078125 -12.984375 C 3.910156 -12.523438 3.664062 -12.082031 3.34375 -11.65625 C 3.019531 -11.226562 2.632812 -10.832031 2.1875 -10.46875 L 1.703125 -10.796875 C 1.617188 -10.847656 1.578125 -10.925781 1.578125 -11.03125 C 1.578125 -11.082031 1.59375 -11.132812 1.625 -11.1875 C 1.65625 -11.238281 1.707031 -11.304688 1.78125 -11.390625 C 1.9375 -11.566406 2.09375 -11.78125 2.25 -12.03125 C 2.40625 -12.28125 2.53125 -12.554688 2.625 -12.859375 C 2.71875 -13.160156 2.757812 -13.476562 2.75 -13.8125 C 2.75 -14.15625 2.664062 -14.503906 2.5 -14.859375 C 2.457031 -14.972656 2.460938 -15.078125 2.515625 -15.171875 C 2.566406 -15.265625 2.660156 -15.34375 2.796875 -15.40625 Z M 3.96875 -15.84375 "/></g></g><g style="fill:#ffffff;fill-opacity:1;"><g transform="translate(259.267578, 76.876705)"><path style="stroke:none" d="M 7.5 -8.96875 C 7.445312 -8.882812 7.390625 -8.820312 7.328125 -8.78125 C 7.273438 -8.738281 7.207031 -8.71875 7.125 -8.71875 C 7.03125 -8.71875 6.921875 -8.753906 6.796875 -8.828125 C 6.679688 -8.910156 6.539062 -9 6.375 -9.09375 C 6.21875 -9.195312 6.019531 -9.285156 5.78125 -9.359375 C 5.539062 -9.441406 5.25 -9.484375 4.90625 -9.484375 C 4.59375 -9.484375 4.304688 -9.4375 4.046875 -9.34375 C 3.785156 -9.257812 3.5625 -9.140625 3.375 -8.984375 C 3.1875 -8.835938 3.039062 -8.660156 2.9375 -8.453125 C 2.84375 -8.242188 2.796875 -8.019531 2.796875 -7.78125 C 2.796875 -7.457031 2.90625 -7.195312 3.125 -7 C 3.34375 -6.800781 3.613281 -6.628906 3.9375 -6.484375 C 4.269531 -6.335938 4.625 -6.195312 5 -6.0625 C 5.382812 -5.9375 5.738281 -5.769531 6.0625 -5.5625 C 6.394531 -5.363281 6.671875 -5.101562 6.890625 -4.78125 C 7.109375 -4.46875 7.21875 -4.054688 7.21875 -3.546875 C 7.21875 -3.054688 7.117188 -2.585938 6.921875 -2.140625 C 6.734375 -1.691406 6.457031 -1.296875 6.09375 -0.953125 C 5.726562 -0.609375 5.289062 -0.332031 4.78125 -0.125 C 4.28125 0.0703125 3.710938 0.171875 3.078125 0.171875 C 2.398438 0.171875 1.796875 0.0507812 1.265625 -0.1875 C 0.742188 -0.4375 0.316406 -0.75 -0.015625 -1.125 L 0.453125 -1.84375 C 0.515625 -1.9375 0.582031 -2.003906 0.65625 -2.046875 C 0.726562 -2.097656 0.828125 -2.125 0.953125 -2.125 C 1.054688 -2.125 1.164062 -2.070312 1.28125 -1.96875 C 1.394531 -1.875 1.535156 -1.765625 1.703125 -1.640625 C 1.867188 -1.523438 2.082031 -1.414062 2.34375 -1.3125 C 2.601562 -1.21875 2.925781 -1.171875 3.3125 -1.171875 C 3.664062 -1.171875 3.976562 -1.222656 4.25 -1.328125 C 4.53125 -1.429688 4.765625 -1.570312 4.953125 -1.75 C 5.148438 -1.925781 5.296875 -2.128906 5.390625 -2.359375 C 5.492188 -2.597656 5.546875 -2.851562 5.546875 -3.125 C 5.546875 -3.476562 5.4375 -3.757812 5.21875 -3.96875 C 5.007812 -4.1875 4.738281 -4.363281 4.40625 -4.5 C 4.070312 -4.644531 3.710938 -4.773438 3.328125 -4.890625 C 2.953125 -5.015625 2.597656 -5.171875 2.265625 -5.359375 C 1.941406 -5.554688 1.671875 -5.8125 1.453125 -6.125 C 1.234375 -6.4375 1.125 -6.847656 1.125 -7.359375 C 1.125 -7.804688 1.210938 -8.238281 1.390625 -8.65625 C 1.578125 -9.070312 1.835938 -9.441406 2.171875 -9.765625 C 2.503906 -10.085938 2.910156 -10.34375 3.390625 -10.53125 C 3.878906 -10.726562 4.425781 -10.828125 5.03125 -10.828125 C 5.664062 -10.828125 6.226562 -10.71875 6.71875 -10.5 C 7.207031 -10.289062 7.628906 -10.003906 7.984375 -9.640625 Z M 7.5 -8.96875 "/></g></g><g style="fill:#ffffff;fill-opacity:1;"><g transform="translate(267.697258, 76.876705)"><path style="stroke:none" d=""/></g></g><g style="fill:#000000;fill-opacity:1;"><g transform="translate(272.629952, 76.876705)"><path style="stroke:none" d="M 3.3125 -7.984375 C 3.875 -8.921875 4.515625 -9.628906 5.234375 -10.109375 C 5.953125 -10.585938 6.691406 -10.828125 7.453125 -10.828125 C 7.898438 -10.828125 8.289062 -10.738281 8.625 -10.5625 C 8.96875 -10.382812 9.25 -10.125 9.46875 -9.78125 C 9.6875 -9.4375 9.832031 -9.007812 9.90625 -8.5 C 9.976562 -8 9.976562 -7.429688 9.90625 -6.796875 L 9.109375 0 L 7.234375 0 L 8.046875 -6.796875 C 8.140625 -7.640625 8.082031 -8.265625 7.875 -8.671875 C 7.675781 -9.078125 7.300781 -9.28125 6.75 -9.28125 C 6.414062 -9.28125 6.070312 -9.1875 5.71875 -9 C 5.375 -8.8125 5.039062 -8.550781 4.71875 -8.21875 C 4.394531 -7.882812 4.09375 -7.476562 3.8125 -7 C 3.539062 -6.53125 3.304688 -6.003906 3.109375 -5.421875 L 2.5 0 L 0.625 0 L 1.90625 -10.6875 L 2.828125 -10.6875 C 3.253906 -10.6875 3.46875 -10.472656 3.46875 -10.046875 Z M 3.3125 -7.984375 "/></g></g><g style="fill:#000000;fill-opacity:1;"><g transform="translate(283.799272, 76.876705)"><path style="stroke:none" d="M 6.046875 -9.46875 C 5.609375 -9.46875 5.203125 -9.375 4.828125 -9.1875 C 4.453125 -9.007812 4.117188 -8.757812 3.828125 -8.4375 C 3.546875 -8.125 3.300781 -7.75 3.09375 -7.3125 C 2.894531 -6.882812 2.738281 -6.421875 2.625 -5.921875 C 3.707031 -6.054688 4.570312 -6.207031 5.21875 -6.375 C 5.875 -6.550781 6.378906 -6.738281 6.734375 -6.9375 C 7.085938 -7.132812 7.316406 -7.347656 7.421875 -7.578125 C 7.535156 -7.816406 7.59375 -8.0625 7.59375 -8.3125 C 7.59375 -8.4375 7.566406 -8.566406 7.515625 -8.703125 C 7.460938 -8.847656 7.375 -8.972656 7.25 -9.078125 C 7.125 -9.191406 6.960938 -9.285156 6.765625 -9.359375 C 6.566406 -9.429688 6.328125 -9.46875 6.046875 -9.46875 Z M 9.015625 -1.96875 C 8.660156 -1.59375 8.3125 -1.273438 7.96875 -1.015625 C 7.625 -0.753906 7.273438 -0.535156 6.921875 -0.359375 C 6.566406 -0.179688 6.191406 -0.0546875 5.796875 0.015625 C 5.410156 0.0976562 4.992188 0.140625 4.546875 0.140625 C 3.929688 0.140625 3.378906 0.0390625 2.890625 -0.15625 C 2.410156 -0.363281 2 -0.65625 1.65625 -1.03125 C 1.320312 -1.40625 1.0625 -1.859375 0.875 -2.390625 C 0.695312 -2.921875 0.609375 -3.519531 0.609375 -4.1875 C 0.609375 -4.726562 0.664062 -5.269531 0.78125 -5.8125 C 0.894531 -6.363281 1.0625 -6.882812 1.28125 -7.375 C 1.507812 -7.863281 1.78125 -8.316406 2.09375 -8.734375 C 2.414062 -9.160156 2.78125 -9.523438 3.1875 -9.828125 C 3.601562 -10.140625 4.054688 -10.382812 4.546875 -10.5625 C 5.046875 -10.738281 5.582031 -10.828125 6.15625 -10.828125 C 6.695312 -10.828125 7.160156 -10.75 7.546875 -10.59375 C 7.941406 -10.4375 8.265625 -10.238281 8.515625 -10 C 8.773438 -9.757812 8.96875 -9.492188 9.09375 -9.203125 C 9.21875 -8.921875 9.28125 -8.648438 9.28125 -8.390625 C 9.28125 -7.921875 9.179688 -7.492188 8.984375 -7.109375 C 8.796875 -6.722656 8.445312 -6.367188 7.9375 -6.046875 C 7.4375 -5.734375 6.742188 -5.460938 5.859375 -5.234375 C 4.972656 -5.003906 3.832031 -4.816406 2.4375 -4.671875 C 2.4375 -4.597656 2.4375 -4.523438 2.4375 -4.453125 C 2.4375 -4.378906 2.4375 -4.300781 2.4375 -4.21875 C 2.4375 -3.28125 2.640625 -2.5625 3.046875 -2.0625 C 3.460938 -1.570312 4.082031 -1.328125 4.90625 -1.328125 C 5.25 -1.328125 5.550781 -1.359375 5.8125 -1.421875 C 6.070312 -1.492188 6.304688 -1.582031 6.515625 -1.6875 C 6.722656 -1.789062 6.90625 -1.90625 7.0625 -2.03125 C 7.21875 -2.15625 7.359375 -2.265625 7.484375 -2.359375 C 7.617188 -2.460938 7.742188 -2.550781 7.859375 -2.625 C 7.972656 -2.695312 8.085938 -2.734375 8.203125 -2.734375 C 8.335938 -2.734375 8.457031 -2.671875 8.5625 -2.546875 Z M 9.015625 -1.96875 "/></g></g><g style="fill:#000000;fill-opacity:1;"><g transform="translate(293.883274, 76.876705)"><path style="stroke:none" d="M 6.015625 -5.734375 L 8.859375 0 L 7.1875 0 C 7.050781 0 6.941406 -0.03125 6.859375 -0.09375 C 6.773438 -0.164062 6.707031 -0.257812 6.65625 -0.375 L 4.65625 -4.640625 C 4.59375 -4.492188 4.519531 -4.359375 4.4375 -4.234375 L 1.53125 -0.359375 C 1.445312 -0.253906 1.363281 -0.164062 1.28125 -0.09375 C 1.195312 -0.03125 1.09375 0 0.96875 0 L -0.65625 0 L 3.640625 -5.75 L 1.078125 -10.671875 L 2.765625 -10.671875 C 2.898438 -10.671875 3 -10.648438 3.0625 -10.609375 C 3.125 -10.578125 3.175781 -10.507812 3.21875 -10.40625 L 5.015625 -6.734375 C 5.085938 -6.890625 5.175781 -7.039062 5.28125 -7.1875 L 7.6875 -10.375 C 7.800781 -10.570312 7.953125 -10.671875 8.140625 -10.671875 L 9.828125 -10.671875 Z M 6.015625 -5.734375 "/></g></g><g style="fill:#000000;fill-opacity:1;"><g transform="translate(303.661702, 76.876705)"><path style="stroke:none" d="M 1.46875 -2.015625 C 1.46875 -2.054688 1.46875 -2.109375 1.46875 -2.171875 C 1.46875 -2.242188 1.472656 -2.34375 1.484375 -2.46875 C 1.492188 -2.59375 1.507812 -2.753906 1.53125 -2.953125 C 1.5625 -3.160156 1.597656 -3.429688 1.640625 -3.765625 L 2.28125 -9.109375 L 1.09375 -9.109375 C 1 -9.109375 0.921875 -9.140625 0.859375 -9.203125 C 0.796875 -9.273438 0.773438 -9.378906 0.796875 -9.515625 L 0.875 -10.265625 L 2.515625 -10.484375 L 3.3125 -13.78125 C 3.351562 -13.882812 3.410156 -13.96875 3.484375 -14.03125 C 3.554688 -14.101562 3.648438 -14.140625 3.765625 -14.140625 L 4.75 -14.140625 L 4.296875 -10.46875 L 7.09375 -10.46875 L 6.9375 -9.109375 L 4.125 -9.109375 L 3.484375 -3.859375 C 3.441406 -3.566406 3.410156 -3.332031 3.390625 -3.15625 C 3.367188 -2.976562 3.351562 -2.835938 3.34375 -2.734375 C 3.332031 -2.628906 3.320312 -2.554688 3.3125 -2.515625 C 3.3125 -2.472656 3.3125 -2.441406 3.3125 -2.421875 C 3.3125 -2.066406 3.394531 -1.800781 3.5625 -1.625 C 3.738281 -1.457031 3.96875 -1.375 4.25 -1.375 C 4.4375 -1.375 4.597656 -1.398438 4.734375 -1.453125 C 4.867188 -1.503906 4.988281 -1.5625 5.09375 -1.625 C 5.207031 -1.6875 5.296875 -1.742188 5.359375 -1.796875 C 5.429688 -1.847656 5.492188 -1.875 5.546875 -1.875 C 5.609375 -1.875 5.65625 -1.859375 5.6875 -1.828125 C 5.71875 -1.804688 5.75 -1.765625 5.78125 -1.703125 L 6.171875 -0.796875 C 5.828125 -0.492188 5.4375 -0.253906 5 -0.078125 C 4.5625 0.0859375 4.117188 0.171875 3.671875 0.171875 C 2.992188 0.171875 2.457031 -0.015625 2.0625 -0.390625 C 1.675781 -0.765625 1.476562 -1.304688 1.46875 -2.015625 Z M 1.46875 -2.015625 "/></g></g><g style="fill:#ff5f1f;fill-opacity:1;"><g transform="translate(311.139305, 76.876705)"><path style="stroke:none" d=""/></g></g><g style="fill:#ffffff;fill-opacity:1;"><g transform="translate(316.077302, 76.876705)"><path style="stroke:none" d=""/></g></g><g style="fill:#ffffff;fill-opacity:1;"><g transform="translate(321.015299, 76.876705)"><path style="stroke:none" d="M 4.78125 -1.3125 C 5.289062 -1.3125 5.753906 -1.453125 6.171875 -1.734375 C 6.585938 -2.015625 6.941406 -2.390625 7.234375 -2.859375 C 7.535156 -3.328125 7.765625 -3.863281 7.921875 -4.46875 C 8.085938 -5.082031 8.171875 -5.722656 8.171875 -6.390625 C 8.171875 -7.378906 7.976562 -8.117188 7.59375 -8.609375 C 7.207031 -9.109375 6.644531 -9.359375 5.90625 -9.359375 C 5.382812 -9.359375 4.914062 -9.21875 4.5 -8.9375 C 4.082031 -8.664062 3.726562 -8.296875 3.4375 -7.828125 C 3.144531 -7.367188 2.914062 -6.832031 2.75 -6.21875 C 2.59375 -5.601562 2.515625 -4.960938 2.515625 -4.296875 C 2.515625 -3.316406 2.707031 -2.570312 3.09375 -2.0625 C 3.476562 -1.5625 4.039062 -1.3125 4.78125 -1.3125 Z M 4.59375 0.140625 C 4.007812 0.140625 3.472656 0.0390625 2.984375 -0.15625 C 2.503906 -0.351562 2.085938 -0.640625 1.734375 -1.015625 C 1.390625 -1.398438 1.117188 -1.863281 0.921875 -2.40625 C 0.722656 -2.957031 0.625 -3.585938 0.625 -4.296875 C 0.625 -5.191406 0.765625 -6.035156 1.046875 -6.828125 C 1.328125 -7.617188 1.710938 -8.3125 2.203125 -8.90625 C 2.691406 -9.5 3.269531 -9.96875 3.9375 -10.3125 C 4.601562 -10.65625 5.316406 -10.828125 6.078125 -10.828125 C 6.660156 -10.828125 7.191406 -10.726562 7.671875 -10.53125 C 8.160156 -10.332031 8.582031 -10.039062 8.9375 -9.65625 C 9.289062 -9.28125 9.5625 -8.816406 9.75 -8.265625 C 9.945312 -7.722656 10.046875 -7.101562 10.046875 -6.40625 C 10.046875 -5.507812 9.90625 -4.664062 9.625 -3.875 C 9.351562 -3.082031 8.972656 -2.382812 8.484375 -1.78125 C 7.992188 -1.1875 7.414062 -0.71875 6.75 -0.375 C 6.082031 -0.03125 5.363281 0.140625 4.59375 0.140625 Z M 4.59375 0.140625 "/></g></g><g style="fill:#ffffff;fill-opacity:1;"><g transform="translate(331.952807, 76.876705)"><path style="stroke:none" d="M 3.3125 -7.984375 C 3.875 -8.921875 4.515625 -9.628906 5.234375 -10.109375 C 5.953125 -10.585938 6.691406 -10.828125 7.453125 -10.828125 C 7.898438 -10.828125 8.289062 -10.738281 8.625 -10.5625 C 8.96875 -10.382812 9.25 -10.125 9.46875 -9.78125 C 9.6875 -9.4375 9.832031 -9.007812 9.90625 -8.5 C 9.976562 -8 9.976562 -7.429688 9.90625 -6.796875 L 9.109375 0 L 7.234375 0 L 8.046875 -6.796875 C 8.140625 -7.640625 8.082031 -8.265625 7.875 -8.671875 C 7.675781 -9.078125 7.300781 -9.28125 6.75 -9.28125 C 6.414062 -9.28125 6.070312 -9.1875 5.71875 -9 C 5.375 -8.8125 5.039062 -8.550781 4.71875 -8.21875 C 4.394531 -7.882812 4.09375 -7.476562 3.8125 -7 C 3.539062 -6.53125 3.304688 -6.003906 3.109375 -5.421875 L 2.5 0 L 0.625 0 L 1.90625 -10.6875 L 2.828125 -10.6875 C 3.253906 -10.6875 3.46875 -10.472656 3.46875 -10.046875 Z M 3.3125 -7.984375 "/></g></g><g style="fill:#ffffff;fill-opacity:1;"><g transform="translate(343.122126, 76.876705)"><path style="stroke:none" d=""/></g></g><g style="fill:#ffffff;fill-opacity:1;"><g transform="translate(348.053484, 76.876705)"><path style="stroke:none" d="M 10.453125 -10.671875 L 3.25 3.1875 C 3.164062 3.332031 3.070312 3.4375 2.96875 3.5 C 2.875 3.570312 2.75 3.609375 2.59375 3.609375 L 1.21875 3.609375 L 3.53125 -0.625 L 0.765625 -10.671875 L 2.3125 -10.671875 C 2.46875 -10.671875 2.578125 -10.632812 2.640625 -10.5625 C 2.710938 -10.488281 2.765625 -10.394531 2.796875 -10.28125 L 4.515625 -3.5625 C 4.554688 -3.414062 4.585938 -3.265625 4.609375 -3.109375 C 4.628906 -2.960938 4.644531 -2.816406 4.65625 -2.671875 C 4.71875 -2.816406 4.78125 -2.960938 4.84375 -3.109375 C 4.90625 -3.265625 4.972656 -3.421875 5.046875 -3.578125 L 8.421875 -10.3125 C 8.472656 -10.414062 8.550781 -10.5 8.65625 -10.5625 C 8.757812 -10.632812 8.863281 -10.671875 8.96875 -10.671875 Z M 10.453125 -10.671875 "/></g></g><g style="fill:#ffffff;fill-opacity:1;"><g transform="translate(358.158557, 76.876705)"><path style="stroke:none" d="M 4.78125 -1.3125 C 5.289062 -1.3125 5.753906 -1.453125 6.171875 -1.734375 C 6.585938 -2.015625 6.941406 -2.390625 7.234375 -2.859375 C 7.535156 -3.328125 7.765625 -3.863281 7.921875 -4.46875 C 8.085938 -5.082031 8.171875 -5.722656 8.171875 -6.390625 C 8.171875 -7.378906 7.976562 -8.117188 7.59375 -8.609375 C 7.207031 -9.109375 6.644531 -9.359375 5.90625 -9.359375 C 5.382812 -9.359375 4.914062 -9.21875 4.5 -8.9375 C 4.082031 -8.664062 3.726562 -8.296875 3.4375 -7.828125 C 3.144531 -7.367188 2.914062 -6.832031 2.75 -6.21875 C 2.59375 -5.601562 2.515625 -4.960938 2.515625 -4.296875 C 2.515625 -3.316406 2.707031 -2.570312 3.09375 -2.0625 C 3.476562 -1.5625 4.039062 -1.3125 4.78125 -1.3125 Z M 4.59375 0.140625 C 4.007812 0.140625 3.472656 0.0390625 2.984375 -0.15625 C 2.503906 -0.351562 2.085938 -0.640625 1.734375 -1.015625 C 1.390625 -1.398438 1.117188 -1.863281 0.921875 -2.40625 C 0.722656 -2.957031 0.625 -3.585938 0.625 -4.296875 C 0.625 -5.191406 0.765625 -6.035156 1.046875 -6.828125 C 1.328125 -7.617188 1.710938 -8.3125 2.203125 -8.90625 C 2.691406 -9.5 3.269531 -9.96875 3.9375 -10.3125 C 4.601562 -10.65625 5.316406 -10.828125 6.078125 -10.828125 C 6.660156 -10.828125 7.191406 -10.726562 7.671875 -10.53125 C 8.160156 -10.332031 8.582031 -10.039062 8.9375 -9.65625 C 9.289062 -9.28125 9.5625 -8.816406 9.75 -8.265625 C 9.945312 -7.722656 10.046875 -7.101562 10.046875 -6.40625 C 10.046875 -5.507812 9.90625 -4.664062 9.625 -3.875 C 9.351562 -3.082031 8.972656 -2.382812 8.484375 -1.78125 C 7.992188 -1.1875 7.414062 -0.71875 6.75 -0.375 C 6.082031 -0.03125 5.363281 0.140625 4.59375 0.140625 Z M 4.59375 0.140625 "/></g></g><g style="fill:#ffffff;fill-opacity:1;"><g transform="translate(369.096065, 76.876705)"><path style="stroke:none" d="M 10.28125 -10.671875 L 8.984375 0 L 8.0625 0 C 7.601562 0 7.375 -0.222656 7.375 -0.671875 L 7.53125 -2.625 C 6.96875 -1.707031 6.332031 -1.015625 5.625 -0.546875 C 4.925781 -0.0859375 4.203125 0.140625 3.453125 0.140625 C 3.003906 0.140625 2.609375 0.0507812 2.265625 -0.125 C 1.921875 -0.300781 1.640625 -0.5625 1.421875 -0.90625 C 1.210938 -1.25 1.066406 -1.671875 0.984375 -2.171875 C 0.910156 -2.671875 0.914062 -3.242188 1 -3.890625 L 1.796875 -10.671875 L 3.671875 -10.671875 L 2.859375 -3.890625 C 2.765625 -3.054688 2.816406 -2.429688 3.015625 -2.015625 C 3.210938 -1.609375 3.59375 -1.40625 4.15625 -1.40625 C 4.476562 -1.40625 4.8125 -1.492188 5.15625 -1.671875 C 5.5 -1.847656 5.828125 -2.097656 6.140625 -2.421875 C 6.460938 -2.742188 6.757812 -3.132812 7.03125 -3.59375 C 7.3125 -4.0625 7.550781 -4.570312 7.75 -5.125 L 8.40625 -10.671875 Z M 10.28125 -10.671875 "/></g></g><g style="fill:#ffffff;fill-opacity:1;"><g transform="translate(380.254849, 76.876705)"><path style="stroke:none" d="M 3.296875 -7.703125 C 3.578125 -8.296875 3.878906 -8.8125 4.203125 -9.25 C 4.535156 -9.695312 4.878906 -10.046875 5.234375 -10.296875 C 5.597656 -10.546875 5.96875 -10.695312 6.34375 -10.75 C 6.71875 -10.800781 7.101562 -10.742188 7.5 -10.578125 L 7.171875 -8.765625 C 6.253906 -9.128906 5.445312 -8.992188 4.75 -8.359375 C 4.050781 -7.734375 3.484375 -6.59375 3.046875 -4.9375 L 2.453125 0 L 0.625 0 L 1.90625 -10.6875 L 2.828125 -10.6875 C 3.265625 -10.6875 3.484375 -10.472656 3.484375 -10.046875 Z M 3.296875 -7.703125 "/></g></g><g style="fill:#ffffff;fill-opacity:1;"><g transform="translate(387.462223, 76.876705)"><path style="stroke:none" d=""/></g></g><g style="fill:#ffffff;fill-opacity:1;"><g transform="translate(392.39358, 76.876705)"><path style="stroke:none" d="M 0.671875 0 L 2.5625 -15.53125 L 4.40625 -15.53125 L 2.515625 0 Z M 0.671875 0 "/></g></g><g style="fill:#ffffff;fill-opacity:1;"><g transform="translate(397.13527, 76.876705)"><path style="stroke:none" d="M 3.859375 -10.671875 L 2.578125 0 L 0.734375 0 L 2.015625 -10.671875 Z M 4.578125 -14.03125 C 4.578125 -13.84375 4.539062 -13.671875 4.46875 -13.515625 C 4.394531 -13.359375 4.296875 -13.21875 4.171875 -13.09375 C 4.046875 -12.96875 3.90625 -12.867188 3.75 -12.796875 C 3.59375 -12.734375 3.425781 -12.703125 3.25 -12.703125 C 3.09375 -12.703125 2.9375 -12.734375 2.78125 -12.796875 C 2.625 -12.867188 2.488281 -12.96875 2.375 -13.09375 C 2.257812 -13.21875 2.164062 -13.359375 2.09375 -13.515625 C 2.019531 -13.671875 1.984375 -13.84375 1.984375 -14.03125 C 1.984375 -14.207031 2.019531 -14.375 2.09375 -14.53125 C 2.164062 -14.695312 2.257812 -14.84375 2.375 -14.96875 C 2.5 -15.09375 2.640625 -15.191406 2.796875 -15.265625 C 2.953125 -15.335938 3.109375 -15.375 3.265625 -15.375 C 3.429688 -15.375 3.59375 -15.335938 3.75 -15.265625 C 3.914062 -15.203125 4.054688 -15.109375 4.171875 -14.984375 C 4.296875 -14.859375 4.394531 -14.710938 4.46875 -14.546875 C 4.539062 -14.378906 4.578125 -14.207031 4.578125 -14.03125 Z M 4.578125 -14.03125 "/></g></g><g style="fill:#ffffff;fill-opacity:1;"><g transform="translate(401.982329, 76.876705)"><path style="stroke:none" d="M 7.5 -8.96875 C 7.445312 -8.882812 7.390625 -8.820312 7.328125 -8.78125 C 7.273438 -8.738281 7.207031 -8.71875 7.125 -8.71875 C 7.03125 -8.71875 6.921875 -8.753906 6.796875 -8.828125 C 6.679688 -8.910156 6.539062 -9 6.375 -9.09375 C 6.21875 -9.195312 6.019531 -9.285156 5.78125 -9.359375 C 5.539062 -9.441406 5.25 -9.484375 4.90625 -9.484375 C 4.59375 -9.484375 4.304688 -9.4375 4.046875 -9.34375 C 3.785156 -9.257812 3.5625 -9.140625 3.375 -8.984375 C 3.1875 -8.835938 3.039062 -8.660156 2.9375 -8.453125 C 2.84375 -8.242188 2.796875 -8.019531 2.796875 -7.78125 C 2.796875 -7.457031 2.90625 -7.195312 3.125 -7 C 3.34375 -6.800781 3.613281 -6.628906 3.9375 -6.484375 C 4.269531 -6.335938 4.625 -6.195312 5 -6.0625 C 5.382812 -5.9375 5.738281 -5.769531 6.0625 -5.5625 C 6.394531 -5.363281 6.671875 -5.101562 6.890625 -4.78125 C 7.109375 -4.46875 7.21875 -4.054688 7.21875 -3.546875 C 7.21875 -3.054688 7.117188 -2.585938 6.921875 -2.140625 C 6.734375 -1.691406 6.457031 -1.296875 6.09375 -0.953125 C 5.726562 -0.609375 5.289062 -0.332031 4.78125 -0.125 C 4.28125 0.0703125 3.710938 0.171875 3.078125 0.171875 C 2.398438 0.171875 1.796875 0.0507812 1.265625 -0.1875 C 0.742188 -0.4375 0.316406 -0.75 -0.015625 -1.125 L 0.453125 -1.84375 C 0.515625 -1.9375 0.582031 -2.003906 0.65625 -2.046875 C 0.726562 -2.097656 0.828125 -2.125 0.953125 -2.125 C 1.054688 -2.125 1.164062 -2.070312 1.28125 -1.96875 C 1.394531 -1.875 1.535156 -1.765625 1.703125 -1.640625 C 1.867188 -1.523438 2.082031 -1.414062 2.34375 -1.3125 C 2.601562 -1.21875 2.925781 -1.171875 3.3125 -1.171875 C 3.664062 -1.171875 3.976562 -1.222656 4.25 -1.328125 C 4.53125 -1.429688 4.765625 -1.570312 4.953125 -1.75 C 5.148438 -1.925781 5.296875 -2.128906 5.390625 -2.359375 C 5.492188 -2.597656 5.546875 -2.851562 5.546875 -3.125 C 5.546875 -3.476562 5.4375 -3.757812 5.21875 -3.96875 C 5.007812 -4.1875 4.738281 -4.363281 4.40625 -4.5 C 4.070312 -4.644531 3.710938 -4.773438 3.328125 -4.890625 C 2.953125 -5.015625 2.597656 -5.171875 2.265625 -5.359375 C 1.941406 -5.554688 1.671875 -5.8125 1.453125 -6.125 C 1.234375 -6.4375 1.125 -6.847656 1.125 -7.359375 C 1.125 -7.804688 1.210938 -8.238281 1.390625 -8.65625 C 1.578125 -9.070312 1.835938 -9.441406 2.171875 -9.765625 C 2.503906 -10.085938 2.910156 -10.34375 3.390625 -10.53125 C 3.878906 -10.726562 4.425781 -10.828125 5.03125 -10.828125 C 5.664062 -10.828125 6.226562 -10.71875 6.71875 -10.5 C 7.207031 -10.289062 7.628906 -10.003906 7.984375 -9.640625 Z M 7.5 -8.96875 "/></g></g><g style="fill:#ffffff;fill-opacity:1;"><g transform="translate(410.412009, 76.876705)"><path style="stroke:none" d="M 1.46875 -2.015625 C 1.46875 -2.054688 1.46875 -2.109375 1.46875 -2.171875 C 1.46875 -2.242188 1.472656 -2.34375 1.484375 -2.46875 C 1.492188 -2.59375 1.507812 -2.753906 1.53125 -2.953125 C 1.5625 -3.160156 1.597656 -3.429688 1.640625 -3.765625 L 2.28125 -9.109375 L 1.09375 -9.109375 C 1 -9.109375 0.921875 -9.140625 0.859375 -9.203125 C 0.796875 -9.273438 0.773438 -9.378906 0.796875 -9.515625 L 0.875 -10.265625 L 2.515625 -10.484375 L 3.3125 -13.78125 C 3.351562 -13.882812 3.410156 -13.96875 3.484375 -14.03125 C 3.554688 -14.101562 3.648438 -14.140625 3.765625 -14.140625 L 4.75 -14.140625 L 4.296875 -10.46875 L 7.09375 -10.46875 L 6.9375 -9.109375 L 4.125 -9.109375 L 3.484375 -3.859375 C 3.441406 -3.566406 3.410156 -3.332031 3.390625 -3.15625 C 3.367188 -2.976562 3.351562 -2.835938 3.34375 -2.734375 C 3.332031 -2.628906 3.320312 -2.554688 3.3125 -2.515625 C 3.3125 -2.472656 3.3125 -2.441406 3.3125 -2.421875 C 3.3125 -2.066406 3.394531 -1.800781 3.5625 -1.625 C 3.738281 -1.457031 3.96875 -1.375 4.25 -1.375 C 4.4375 -1.375 4.597656 -1.398438 4.734375 -1.453125 C 4.867188 -1.503906 4.988281 -1.5625 5.09375 -1.625 C 5.207031 -1.6875 5.296875 -1.742188 5.359375 -1.796875 C 5.429688 -1.847656 5.492188 -1.875 5.546875 -1.875 C 5.609375 -1.875 5.65625 -1.859375 5.6875 -1.828125 C 5.71875 -1.804688 5.75 -1.765625 5.78125 -1.703125 L 6.171875 -0.796875 C 5.828125 -0.492188 5.4375 -0.253906 5 -0.078125 C 4.5625 0.0859375 4.117188 0.171875 3.671875 0.171875 C 2.992188 0.171875 2.457031 -0.015625 2.0625 -0.390625 C 1.675781 -0.765625 1.476562 -1.304688 1.46875 -2.015625 Z M 1.46875 -2.015625 "/></g></g><g style="fill:#ffffff;fill-opacity:1;"><g transform="translate(417.882813, 76.876705)"><path style="stroke:none" d="M 1.671875 -13.734375 C 1.898438 -13.929688 2.144531 -14.125 2.40625 -14.3125 C 2.664062 -14.5 2.945312 -14.660156 3.25 -14.796875 C 3.5625 -14.929688 3.894531 -15.039062 4.25 -15.125 C 4.601562 -15.207031 4.972656 -15.25 5.359375 -15.25 C 5.859375 -15.25 6.304688 -15.175781 6.703125 -15.03125 C 7.097656 -14.882812 7.429688 -14.679688 7.703125 -14.421875 C 7.984375 -14.160156 8.195312 -13.851562 8.34375 -13.5 C 8.488281 -13.144531 8.5625 -12.757812 8.5625 -12.34375 C 8.5625 -11.75 8.476562 -11.242188 8.3125 -10.828125 C 8.15625 -10.421875 7.945312 -10.0625 7.6875 -9.75 C 7.4375 -9.445312 7.160156 -9.179688 6.859375 -8.953125 C 6.554688 -8.734375 6.265625 -8.519531 5.984375 -8.3125 C 5.710938 -8.113281 5.46875 -7.898438 5.25 -7.671875 C 5.039062 -7.441406 4.894531 -7.175781 4.8125 -6.875 L 4.421875 -5.265625 L 3.171875 -5.265625 L 3.28125 -7.015625 C 3.300781 -7.347656 3.40625 -7.640625 3.59375 -7.890625 C 3.78125 -8.148438 4.003906 -8.394531 4.265625 -8.625 C 4.523438 -8.851562 4.804688 -9.078125 5.109375 -9.296875 C 5.421875 -9.515625 5.707031 -9.75 5.96875 -10 C 6.226562 -10.257812 6.441406 -10.546875 6.609375 -10.859375 C 6.785156 -11.179688 6.875 -11.5625 6.875 -12 C 6.875 -12.539062 6.707031 -12.96875 6.375 -13.28125 C 6.039062 -13.601562 5.59375 -13.765625 5.03125 -13.765625 C 4.632812 -13.765625 4.289062 -13.710938 4 -13.609375 C 3.71875 -13.503906 3.472656 -13.382812 3.265625 -13.25 C 3.054688 -13.125 2.882812 -13.007812 2.75 -12.90625 C 2.613281 -12.800781 2.5 -12.75 2.40625 -12.75 C 2.3125 -12.75 2.238281 -12.765625 2.1875 -12.796875 C 2.144531 -12.835938 2.097656 -12.898438 2.046875 -12.984375 Z M 2.25 -1.15625 C 2.25 -1.34375 2.28125 -1.515625 2.34375 -1.671875 C 2.40625 -1.835938 2.492188 -1.976562 2.609375 -2.09375 C 2.734375 -2.21875 2.875 -2.3125 3.03125 -2.375 C 3.195312 -2.445312 3.367188 -2.484375 3.546875 -2.484375 C 3.734375 -2.484375 3.90625 -2.445312 4.0625 -2.375 C 4.226562 -2.3125 4.367188 -2.21875 4.484375 -2.09375 C 4.609375 -1.976562 4.703125 -1.835938 4.765625 -1.671875 C 4.835938 -1.515625 4.875 -1.34375 4.875 -1.15625 C 4.875 -0.96875 4.835938 -0.796875 4.765625 -0.640625 C 4.703125 -0.484375 4.609375 -0.34375 4.484375 -0.21875 C 4.367188 -0.101562 4.226562 -0.015625 4.0625 0.046875 C 3.90625 0.117188 3.734375 0.15625 3.546875 0.15625 C 3.367188 0.15625 3.195312 0.117188 3.03125 0.046875 C 2.875 -0.015625 2.734375 -0.101562 2.609375 -0.21875 C 2.492188 -0.34375 2.40625 -0.484375 2.34375 -0.640625 C 2.28125 -0.796875 2.25 -0.96875 2.25 -1.15625 Z M 2.25 -1.15625 "/></g></g><g style="fill:#ffffff;fill-opacity:1;"><g transform="translate(426.702366, 76.876705)"><path style="stroke:none" d="M 3.96875 -15.84375 C 4.175781 -15.363281 4.285156 -14.878906 4.296875 -14.390625 C 4.316406 -13.910156 4.242188 -13.441406 4.078125 -12.984375 C 3.910156 -12.523438 3.664062 -12.082031 3.34375 -11.65625 C 3.019531 -11.226562 2.632812 -10.832031 2.1875 -10.46875 L 1.703125 -10.796875 C 1.617188 -10.847656 1.578125 -10.925781 1.578125 -11.03125 C 1.578125 -11.082031 1.59375 -11.132812 1.625 -11.1875 C 1.65625 -11.238281 1.707031 -11.304688 1.78125 -11.390625 C 1.9375 -11.566406 2.09375 -11.78125 2.25 -12.03125 C 2.40625 -12.28125 2.53125 -12.554688 2.625 -12.859375 C 2.71875 -13.160156 2.757812 -13.476562 2.75 -13.8125 C 2.75 -14.15625 2.664062 -14.503906 2.5 -14.859375 C 2.457031 -14.972656 2.460938 -15.078125 2.515625 -15.171875 C 2.566406 -15.265625 2.660156 -15.34375 2.796875 -15.40625 Z M 6.90625 -15.84375 C 7.113281 -15.363281 7.222656 -14.878906 7.234375 -14.390625 C 7.253906 -13.910156 7.179688 -13.441406 7.015625 -12.984375 C 6.847656 -12.523438 6.601562 -12.082031 6.28125 -11.65625 C 5.957031 -11.226562 5.570312 -10.832031 5.125 -10.46875 L 4.640625 -10.796875 C 4.554688 -10.847656 4.515625 -10.925781 4.515625 -11.03125 C 4.515625 -11.082031 4.53125 -11.132812 4.5625 -11.1875 C 4.59375 -11.238281 4.644531 -11.304688 4.71875 -11.390625 C 4.875 -11.566406 5.03125 -11.78125 5.1875 -12.03125 C 5.34375 -12.28125 5.46875 -12.554688 5.5625 -12.859375 C 5.65625 -13.160156 5.695312 -13.476562 5.6875 -13.8125 C 5.6875 -14.15625 5.601562 -14.503906 5.4375 -14.859375 C 5.394531 -14.972656 5.398438 -15.078125 5.453125 -15.171875 C 5.503906 -15.265625 5.597656 -15.34375 5.734375 -15.40625 Z M 6.90625 -15.84375 "/></g></g><path style=" stroke:none;fill-rule:nonzero;fill:#ffffff;fill-opacity:1;" d="M 273.984375 60.429688 L 314.585938 60.429688 C 315.714844 60.429688 316.632812 61.347656 316.632812 62.476562 L 316.632812 78.867188 C 316.632812 80 315.714844 80.917969 314.585938 80.917969 L 273.984375 80.917969 C 272.851562 80.917969 271.9375 80 271.9375 78.867188 L 271.9375 62.476562 C 271.9375 61.347656 272.851562 60.429688 273.984375 60.429688 Z M 273.984375 60.429688 "/><g style="fill:#000000;fill-opacity:1;"><g transform="translate(272.203816, 77.039325)"><path style="stroke:none" d="M 11.625 -12.125 L 10.125 0 L 9 0 C 8.832031 0 8.691406 -0.0234375 8.578125 -0.078125 C 8.472656 -0.140625 8.375 -0.238281 8.28125 -0.375 L 3.59375 -8.65625 C 3.582031 -8.519531 3.566406 -8.390625 3.546875 -8.265625 C 3.535156 -8.140625 3.523438 -8.019531 3.515625 -7.90625 L 2.5625 0 L 0.640625 0 L 2.140625 -12.125 L 3.28125 -12.125 C 3.375 -12.125 3.453125 -12.117188 3.515625 -12.109375 C 3.578125 -12.097656 3.632812 -12.078125 3.6875 -12.046875 C 3.738281 -12.023438 3.78125 -11.992188 3.8125 -11.953125 C 3.851562 -11.910156 3.898438 -11.847656 3.953125 -11.765625 L 8.671875 -3.5 C 8.679688 -3.664062 8.691406 -3.820312 8.703125 -3.96875 C 8.710938 -4.125 8.726562 -4.269531 8.75 -4.40625 L 9.703125 -12.125 Z M 11.625 -12.125 "/></g></g><g style="fill:#000000;fill-opacity:1;"><g transform="translate(284.226607, 77.039325)"><path style="stroke:none" d="M 4.109375 -10.390625 L 3.6875 -6.9375 L 7.515625 -6.9375 L 7.3125 -5.265625 L 3.484375 -5.265625 L 3.046875 -1.734375 L 7.9375 -1.734375 L 7.71875 0 L 0.640625 0 L 2.140625 -12.125 L 9.203125 -12.125 L 8.984375 -10.390625 Z M 4.109375 -10.390625 "/></g></g><g style="fill:#000000;fill-opacity:1;"><g transform="translate(293.21647, 77.039325)"><path style="stroke:none" d="M 6.96875 -6.578125 L 10.015625 0 L 8.0625 0 C 7.914062 0 7.800781 -0.0351562 7.71875 -0.109375 C 7.644531 -0.191406 7.582031 -0.28125 7.53125 -0.375 L 5.4375 -5.234375 C 5.382812 -5.140625 5.332031 -5.050781 5.28125 -4.96875 L 2.140625 -0.375 C 2.046875 -0.238281 1.941406 -0.140625 1.828125 -0.078125 C 1.710938 -0.0234375 1.59375 0 1.46875 0 L -0.703125 0 L 3.96875 -6.484375 L 1.234375 -12.125 L 3.203125 -12.125 C 3.347656 -12.125 3.453125 -12.101562 3.515625 -12.0625 C 3.585938 -12.019531 3.648438 -11.945312 3.703125 -11.84375 L 5.546875 -7.671875 C 5.578125 -7.722656 5.609375 -7.773438 5.640625 -7.828125 C 5.671875 -7.890625 5.707031 -7.953125 5.75 -8.015625 L 8.328125 -11.8125 C 8.460938 -12.019531 8.628906 -12.125 8.828125 -12.125 L 11.09375 -12.125 Z M 6.96875 -6.578125 "/></g></g><g style="fill:#000000;fill-opacity:1;"><g transform="translate(303.781441, 77.039325)"><path style="stroke:none" d="M 9.703125 -10.34375 L 6.390625 -10.34375 L 5.125 0 L 2.953125 0 L 4.21875 -10.34375 L 0.890625 -10.34375 L 1.109375 -12.125 L 9.9375 -12.125 Z M 9.703125 -10.34375 "/></g></g><g style="fill:#ffffff;fill-opacity:1;"><g transform="translate(312.690708, 77.039325)"><path style="stroke:none" d=""/></g></g><g style="fill:#ffffff;fill-opacity:1;"><g transform="translate(43.838228, 90.274025)"><path style="stroke:none" d="M 54.109375 -59.09375 C 53.941406 -57.289062 53.816406 -55.445312 53.734375 -53.5625 C 53.648438 -51.675781 53.59375 -49.59375 53.5625 -47.3125 C 53.539062 -45.039062 53.515625 -42.492188 53.484375 -39.671875 C 53.453125 -36.859375 53.4375 -33.648438 53.4375 -30.046875 C 53.4375 -26.671875 53.4375 -23.617188 53.4375 -20.890625 C 53.4375 -18.160156 53.453125 -15.613281 53.484375 -13.25 C 53.515625 -10.882812 53.539062 -8.632812 53.5625 -6.5 C 53.59375 -4.363281 53.632812 -2.195312 53.6875 0 L 41.78125 0 C 41.84375 -2.363281 41.898438 -4.457031 41.953125 -6.28125 C 42.015625 -8.113281 42.085938 -9.988281 42.171875 -11.90625 C 42.253906 -13.820312 42.320312 -15.875 42.375 -18.0625 C 42.4375 -20.257812 42.46875 -22.9375 42.46875 -26.09375 L 17.640625 -26.09375 C 17.640625 -23.382812 17.640625 -20.863281 17.640625 -18.53125 C 17.640625 -16.195312 17.65625 -13.972656 17.6875 -11.859375 C 17.71875 -9.753906 17.742188 -7.726562 17.765625 -5.78125 C 17.796875 -3.84375 17.835938 -1.914062 17.890625 0 L 6 0 C 6.050781 -2.695312 6.117188 -5.070312 6.203125 -7.125 C 6.285156 -9.1875 6.351562 -11.328125 6.40625 -13.546875 C 6.46875 -15.773438 6.523438 -18.320312 6.578125 -21.1875 C 6.640625 -24.0625 6.671875 -27.664062 6.671875 -32 C 6.671875 -36.332031 6.640625 -40.648438 6.578125 -44.953125 C 6.523438 -49.253906 6.414062 -53.6875 6.25 -58.25 L 18.3125 -59.09375 C 18.144531 -57.457031 18.019531 -55.78125 17.9375 -54.0625 C 17.851562 -52.351562 17.796875 -50.5 17.765625 -48.5 C 17.742188 -46.5 17.71875 -44.300781 17.6875 -41.90625 C 17.65625 -39.519531 17.640625 -36.835938 17.640625 -33.859375 L 42.46875 -33.859375 C 42.46875 -37.847656 42.421875 -41.851562 42.328125 -45.875 C 42.242188 -49.90625 42.148438 -54.03125 42.046875 -58.25 Z M 54.109375 -59.09375 "/></g></g><g style="fill:#ffffff;fill-opacity:1;"><g transform="translate(103.863427, 90.274025)"><path style="stroke:none" d="M 6.25 -58.25 C 8.5 -58.695312 11.269531 -59.117188 14.5625 -59.515625 C 17.851562 -59.910156 21.46875 -60.109375 25.40625 -60.109375 C 29.851562 -60.109375 33.804688 -59.414062 37.265625 -58.03125 C 40.734375 -56.65625 43.675781 -54.703125 46.09375 -52.171875 C 48.507812 -49.640625 50.351562 -46.570312 51.625 -42.96875 C 52.894531 -39.363281 53.53125 -35.367188 53.53125 -30.984375 C 53.53125 -26.367188 52.8125 -22.101562 51.375 -18.1875 C 49.9375 -14.28125 47.90625 -10.90625 45.28125 -8.0625 C 42.664062 -5.21875 39.53125 -2.992188 35.875 -1.390625 C 32.21875 0.210938 28.140625 1.015625 23.640625 1.015625 C 19.753906 1.015625 16.304688 0.914062 13.296875 0.71875 C 10.285156 0.519531 7.851562 0.28125 6 0 C 6.050781 -2.695312 6.117188 -5.070312 6.203125 -7.125 C 6.285156 -9.1875 6.351562 -11.328125 6.40625 -13.546875 C 6.46875 -15.773438 6.523438 -18.320312 6.578125 -21.1875 C 6.640625 -24.0625 6.671875 -27.664062 6.671875 -32 C 6.671875 -36.332031 6.640625 -40.648438 6.578125 -44.953125 C 6.523438 -49.253906 6.414062 -53.6875 6.25 -58.25 Z M 24.234375 -52.515625 C 23.273438 -52.515625 22.242188 -52.414062 21.140625 -52.21875 C 20.046875 -52.019531 18.9375 -51.78125 17.8125 -51.5 C 17.695312 -48.789062 17.640625 -45.75 17.640625 -42.375 C 17.640625 -39 17.640625 -34.890625 17.640625 -30.046875 C 17.640625 -25.046875 17.640625 -20.710938 17.640625 -17.046875 C 17.640625 -13.390625 17.671875 -9.957031 17.734375 -6.75 C 18.910156 -6.1875 20.203125 -5.90625 21.609375 -5.90625 C 24.484375 -5.90625 27.171875 -6.351562 29.671875 -7.25 C 32.179688 -8.15625 34.363281 -9.59375 36.21875 -11.5625 C 38.070312 -13.53125 39.53125 -16.046875 40.59375 -19.109375 C 41.664062 -22.179688 42.203125 -25.914062 42.203125 -30.3125 C 42.203125 -34.582031 41.796875 -38.140625 40.984375 -40.984375 C 40.171875 -43.828125 38.972656 -46.109375 37.390625 -47.828125 C 35.816406 -49.546875 33.914062 -50.753906 31.6875 -51.453125 C 29.46875 -52.160156 26.984375 -52.515625 24.234375 -52.515625 Z M 24.234375 -52.515625 "/></g></g><g style="fill:#ffffff;fill-opacity:1;"><g transform="translate(165.566034, 62.095125)"><path style="stroke:none" d="M 29.0625 -6.828125 L 29.0625 0 L 1.703125 0 L 1.703125 -5.421875 L 15.671875 -18.609375 C 17.148438 -20.023438 18.144531 -21.238281 18.65625 -22.25 C 19.175781 -23.269531 19.4375 -24.28125 19.4375 -25.28125 C 19.4375 -26.726562 18.945312 -27.835938 17.96875 -28.609375 C 16.988281 -29.390625 15.550781 -29.78125 13.65625 -29.78125 C 12.0625 -29.78125 10.625 -29.476562 9.34375 -28.875 C 8.070312 -28.269531 7.007812 -27.363281 6.15625 -26.15625 L 0.046875 -30.09375 C 1.460938 -32.195312 3.410156 -33.84375 5.890625 -35.03125 C 8.367188 -36.21875 11.210938 -36.8125 14.421875 -36.8125 C 17.109375 -36.8125 19.457031 -36.367188 21.46875 -35.484375 C 23.488281 -34.609375 25.0625 -33.367188 26.1875 -31.765625 C 27.3125 -30.171875 27.875 -28.285156 27.875 -26.109375 C 27.875 -24.140625 27.457031 -22.296875 26.625 -20.578125 C 25.800781 -18.859375 24.195312 -16.894531 21.8125 -14.6875 L 13.5 -6.828125 Z M 29.0625 -6.828125 "/></g></g></g></svg>