<svg xmlns="http://www.w3.org/2000/svg" xmlns:xlink="http://www.w3.org/1999/xlink" width="1024" zoomAndPan="magnify" viewBox="0 0 768 767.999994" height="1024" preserveAspectRatio="xMidYMid meet" version="1.0"><defs><clipPath id="1cefbced31"><path d="M 21.125 21.125 L 747 21.125 L 747 747 L 21.125 747 Z M 21.125 21.125 " clip-rule="nonzero"/></clipPath></defs><g clip-path="url(#1cefbced31)"><path fill="#ff5f1f" d="M 383.980469 746.847656 C 335 746.847656 287.476562 737.253906 242.726562 718.324219 C 199.515625 700.046875 160.710938 673.886719 127.394531 640.566406 C 94.074219 607.246094 67.910156 568.441406 49.636719 525.230469 C 30.707031 480.484375 21.113281 432.957031 21.113281 383.980469 C 21.113281 335 30.707031 287.476562 49.636719 242.726562 C 67.910156 199.515625 94.074219 160.710938 127.394531 127.394531 C 160.710938 94.074219 199.519531 67.910156 242.726562 49.636719 C 287.476562 30.707031 335 21.113281 383.980469 21.113281 C 432.957031 21.113281 480.484375 30.707031 525.230469 49.636719 C 568.445312 67.910156 607.246094 94.074219 640.566406 127.394531 C 673.886719 160.710938 700.046875 199.519531 718.324219 242.726562 C 737.253906 287.476562 746.847656 335 746.847656 383.980469 C 746.847656 432.957031 737.253906 480.484375 718.324219 525.230469 C 700.046875 568.445312 673.886719 607.246094 640.566406 640.566406 C 607.246094 673.886719 568.441406 700.046875 525.230469 718.324219 C 480.484375 737.253906 432.957031 746.847656 383.980469 746.847656 Z M 383.980469 57.652344 C 204.039062 57.652344 57.652344 204.039062 57.652344 383.980469 C 57.652344 563.914062 204.039062 710.308594 383.980469 710.308594 C 563.914062 710.308594 710.308594 563.917969 710.308594 383.980469 C 710.308594 204.039062 563.917969 57.652344 383.980469 57.652344 Z M 383.980469 57.652344 " fill-opacity="1" fill-rule="nonzero"/></g><path fill="#ff5f1f" d="M 383.980469 592.957031 C 328.160156 592.957031 275.683594 571.21875 236.210938 531.746094 C 196.742188 492.277344 175.003906 439.800781 175.003906 383.980469 C 175.003906 373.886719 183.183594 365.710938 193.273438 365.710938 C 203.367188 365.710938 211.542969 373.886719 211.542969 383.980469 C 211.542969 479.058594 288.898438 556.410156 383.976562 556.410156 C 479.054688 556.410156 556.410156 479.058594 556.410156 383.980469 C 556.410156 288.898438 479.058594 211.546875 383.976562 211.546875 C 373.886719 211.546875 365.707031 203.367188 365.707031 193.277344 C 365.707031 183.1875 373.886719 175.007812 383.976562 175.007812 C 439.796875 175.007812 492.273438 196.746094 531.746094 236.214844 C 571.214844 275.683594 592.953125 328.164062 592.953125 383.984375 C 592.953125 439.800781 571.214844 492.28125 531.746094 531.75 C 492.277344 571.21875 439.800781 592.957031 383.980469 592.957031 Z M 383.980469 592.957031 " fill-opacity="1" fill-rule="nonzero"/><path fill="#ff5f1f" d="M 293.554688 198.789062 L 399.222656 259.792969 C 402.546875 261.710938 406.699219 259.3125 406.699219 255.476562 L 406.699219 133.460938 C 406.699219 129.625 402.546875 127.226562 399.222656 129.144531 L 293.554688 190.152344 C 290.234375 192.070312 290.234375 196.867188 293.554688 198.789062 Z M 293.554688 198.789062 " fill-opacity="1" fill-rule="nonzero"/></svg>